<svg width="24" height="24" viewBox="0 0 24 24" fill="none" xmlns="http://www.w3.org/2000/svg">
<path fill-rule="evenodd" clip-rule="evenodd" d="M14.667 12C14.667 13.4728 13.4731 14.6667 12.0003 14.6667C10.5276 14.6667 9.33366 13.4728 9.33366 12C9.33366 10.5273 10.5276 9.33335 12.0003 9.33335C13.4731 9.33335 14.667 10.5273 14.667 12ZM13.667 12C13.667 12.9205 12.9208 13.6667 12.0003 13.6667C11.0799 13.6667 10.3337 12.9205 10.3337 12C10.3337 11.0795 11.0799 10.3334 12.0003 10.3334C12.9208 10.3334 13.667 11.0795 13.667 12Z" fill="white"/>
<path fill-rule="evenodd" clip-rule="evenodd" d="M12.0003 4.66669C11.8218 4.66669 11.6446 4.67308 11.4691 4.68565C10.9601 4.72213 10.5721 5.0965 10.4609 5.55454L10.2262 6.52116C10.2135 6.57332 10.1665 6.63594 10.0766 6.66838C9.9109 6.72818 9.74879 6.79548 9.59069 6.86985C9.50433 6.91048 9.42683 6.89949 9.38096 6.87155L8.53142 6.35395C8.1291 6.10883 7.59034 6.1183 7.2046 6.45201C6.93608 6.68431 6.68462 6.93578 6.45232 7.20429C6.1186 7.59004 6.10913 8.12879 6.35426 8.53112L6.87185 9.38065C6.8998 9.42652 6.91079 9.50402 6.87016 9.59038C6.79578 9.74848 6.72849 9.91059 6.66868 10.0763C6.63624 10.1662 6.57363 10.2132 6.52146 10.2259L5.55484 10.4606C5.09681 10.5718 4.72243 10.9598 4.68596 11.4688C4.67338 11.6443 4.66699 11.8215 4.66699 12C4.66699 12.1786 4.67338 12.3557 4.68596 12.5312C4.72243 13.0403 5.09681 13.4282 5.55484 13.5395L6.52146 13.7741C6.57363 13.7868 6.63624 13.8338 6.66868 13.9237C6.72849 14.0894 6.79578 14.2516 6.87016 14.4097C6.91079 14.496 6.8998 14.5735 6.87185 14.6194L6.35426 15.4689C6.10913 15.8712 6.1186 16.41 6.45232 16.7957C6.68462 17.0643 6.93608 17.3157 7.2046 17.548C7.59035 17.8817 8.1291 17.8912 8.53142 17.6461L9.38096 17.1285C9.42683 17.1005 9.50433 17.0896 9.59069 17.1302C9.74879 17.2046 9.9109 17.2719 10.0766 17.3317C10.1665 17.3641 10.2135 17.4267 10.2262 17.4789L10.4609 18.4455C10.5721 18.9035 10.9601 19.2779 11.4691 19.3144C11.6446 19.327 11.8218 19.3334 12.0003 19.3334C12.1789 19.3334 12.356 19.327 12.5315 19.3144C13.0406 19.2779 13.4285 18.9035 13.5398 18.4455L13.7745 17.4789C13.7871 17.4267 13.8341 17.3641 13.924 17.3317C14.0897 17.2719 14.2519 17.2046 14.41 17.1302C14.4963 17.0896 14.5738 17.1005 14.6197 17.1285L15.4692 17.6461C15.8716 17.8912 16.4103 17.8817 16.7961 17.548C17.0646 17.3157 17.316 17.0643 17.5483 16.7957C17.8821 16.41 17.8915 15.8712 17.6464 15.4689L17.1288 14.6194C17.1009 14.5735 17.0899 14.496 17.1305 14.4097C17.2049 14.2516 17.2722 14.0894 17.332 13.9237C17.3644 13.8338 17.427 13.7868 17.4792 13.7741L18.4458 13.5395C18.9038 13.4282 19.2782 13.0403 19.3147 12.5312C19.3273 12.3557 19.3337 12.1786 19.3337 12C19.3337 11.8215 19.3273 11.6443 19.3147 11.4688C19.2782 10.9598 18.9038 10.5718 18.4458 10.4606L17.4792 10.2259C17.427 10.2132 17.3644 10.1662 17.332 10.0763C17.2722 9.91059 17.2049 9.74848 17.1305 9.59038C17.0899 9.50402 17.1009 9.42652 17.1288 9.38065L17.6464 8.53112C17.8915 8.12879 17.8821 7.59004 17.5483 7.20429C17.316 6.93578 17.0646 6.68431 16.7961 6.45201C16.4103 6.1183 15.8716 6.10883 15.4692 6.35395L14.6197 6.87155C14.5738 6.89949 14.4963 6.91048 14.41 6.86985C14.2519 6.79548 14.0898 6.72818 13.924 6.66838C13.8341 6.63594 13.7871 6.57332 13.7745 6.52116L13.5398 5.55454C13.4285 5.0965 13.0406 4.72213 12.5315 4.68565C12.356 4.67308 12.1789 4.66669 12.0003 4.66669ZM11.5406 5.6831C11.6923 5.67222 11.8456 5.66669 12.0003 5.66669C12.155 5.66669 12.3083 5.67222 12.4601 5.6831C12.4971 5.68575 12.55 5.71652 12.568 5.79049L12.8027 6.7571C12.9042 7.17503 13.2194 7.47724 13.5846 7.60901C13.7209 7.65818 13.8542 7.71353 13.9843 7.77472C14.3358 7.94009 14.7726 7.94936 15.14 7.72553L15.9895 7.20793C16.0545 7.16835 16.1137 7.18399 16.1418 7.20828C16.3739 7.40908 16.5913 7.62645 16.7921 7.85855C16.8164 7.88663 16.832 7.94584 16.7924 8.01081L16.2748 8.86035C16.051 9.22772 16.0603 9.66456 16.2256 10.0161C16.2868 10.1461 16.3422 10.2795 16.3913 10.4158C16.5231 10.7809 16.8253 11.0962 17.2432 11.1977L18.2099 11.4324C18.2838 11.4503 18.3146 11.5033 18.3172 11.5403C18.3281 11.692 18.3337 11.8453 18.3337 12C18.3337 12.1547 18.3281 12.308 18.3172 12.4598C18.3146 12.4968 18.2838 12.5497 18.2099 12.5677L17.2432 12.8024C16.8253 12.9039 16.5231 13.2191 16.3913 13.5843C16.3422 13.7206 16.2868 13.8539 16.2256 13.984C16.0603 14.3355 16.051 14.7723 16.2748 15.1397L16.7924 15.9892C16.832 16.0542 16.8164 16.1134 16.7921 16.1415C16.5913 16.3736 16.3739 16.591 16.1418 16.7918C16.1137 16.8161 16.0545 16.8317 15.9895 16.7921L15.14 16.2745C14.7726 16.0507 14.3358 16.06 13.9843 16.2253C13.8542 16.2865 13.7209 16.3419 13.5846 16.391C13.2194 16.5228 12.9042 16.825 12.8027 17.2429L12.568 18.2096C12.55 18.2835 12.4971 18.3143 12.4601 18.3169C12.3083 18.3278 12.155 18.3334 12.0003 18.3334C11.8456 18.3334 11.6923 18.3278 11.5406 18.3169C11.5036 18.3143 11.4506 18.2835 11.4327 18.2096L11.198 17.2429C11.0965 16.825 10.7812 16.5228 10.4161 16.391C10.2798 16.3419 10.1465 16.2865 10.0164 16.2253C9.66487 16.06 9.22803 16.0507 8.86065 16.2745L8.01112 16.7921C7.94615 16.8317 7.88694 16.8161 7.85886 16.7918C7.62676 16.591 7.40938 16.3736 7.20859 16.1415C7.18429 16.1134 7.16865 16.0542 7.20824 15.9892L7.72583 15.1397C7.94966 14.7723 7.94039 14.3355 7.77503 13.984C7.71383 13.8539 7.65848 13.7206 7.60931 13.5843C7.47754 13.2191 7.17534 12.9039 6.75741 12.8024L5.79079 12.5677C5.71683 12.5497 5.68605 12.4968 5.6834 12.4598C5.67253 12.308 5.66699 12.1547 5.66699 12C5.66699 11.8453 5.67253 11.692 5.6834 11.5403C5.68605 11.5033 5.71683 11.4503 5.79079 11.4324L6.75741 11.1977C7.17534 11.0962 7.47754 10.7809 7.60931 10.4158C7.65848 10.2795 7.71383 10.1461 7.77503 10.0161C7.94039 9.66457 7.94966 9.22773 7.72583 8.86035L7.20824 8.01082C7.16865 7.94584 7.18429 7.88663 7.20859 7.85855C7.40938 7.62645 7.62676 7.40908 7.85886 7.20828C7.88694 7.18399 7.94615 7.16835 8.01112 7.20793L8.86065 7.72553C9.22803 7.94936 9.66487 7.94009 10.0164 7.77472C10.1465 7.71353 10.2798 7.65818 10.4161 7.60901C10.7812 7.47724 11.0965 7.17503 11.198 6.7571L11.4327 5.79049C11.4506 5.71652 11.5036 5.68575 11.5406 5.6831Z" fill="white"/>
</svg>
