<svg width="24" height="24" viewBox="0 0 24 24" fill="none" xmlns="http://www.w3.org/2000/svg">
<path fill-rule="evenodd" clip-rule="evenodd" d="M9.00033 5.16667C9.00033 4.52267 9.52299 4 10.167 4H13.8337C14.4777 4 15.0003 4.52267 15.0003 5.16667V6.66667H18.167C18.811 6.66667 19.3337 7.18933 19.3337 7.83333V17.5C19.3337 17.8094 19.2107 18.1062 18.9919 18.325C18.7732 18.5438 18.4764 18.6667 18.167 18.6667H5.83366C5.52424 18.6667 5.22749 18.5438 5.0087 18.325C4.78991 18.1062 4.66699 17.8094 4.66699 17.5V7.83333C4.66699 7.18933 5.18966 6.66667 5.83366 6.66667H9.00033V5.16667ZM5.66699 11.9933V17.5C5.66699 17.592 5.74166 17.6667 5.83366 17.6667H18.167C18.2112 17.6667 18.2536 17.6491 18.2848 17.6179C18.3161 17.5866 18.3337 17.5442 18.3337 17.5V11.9933C17.8222 12.4288 17.1721 12.6676 16.5003 12.6667H7.50033C6.82855 12.6676 6.17848 12.4288 5.66699 11.9933ZM18.3337 9.83333C18.3337 10.3196 18.1405 10.7859 17.7967 11.1297C17.4529 11.4735 16.9866 11.6667 16.5003 11.6667H7.50033C7.0141 11.6667 6.54778 11.4735 6.20396 11.1297C5.86015 10.7859 5.66699 10.3196 5.66699 9.83333V7.83333C5.66699 7.78913 5.68455 7.74674 5.71581 7.71548C5.74706 7.68423 5.78946 7.66667 5.83366 7.66667H18.167C18.2112 7.66667 18.2536 7.68423 18.2848 7.71548C18.3161 7.74674 18.3337 7.78913 18.3337 7.83333V9.83333ZM14.0003 5.16667V6.66667H10.0003V5.16667C10.0003 5.12246 10.0179 5.08007 10.0491 5.04882C10.0804 5.01756 10.1228 5 10.167 5H13.8337C13.8779 5 13.9203 5.01756 13.9515 5.04882C13.9828 5.08007 14.0003 5.12246 14.0003 5.16667Z" fill="#6E55CE"/>
</svg>
