<svg width="24" height="24" viewBox="0 0 24 24" fill="none" xmlns="http://www.w3.org/2000/svg">
<path fill-rule="evenodd" clip-rule="evenodd" d="M11.353 5.72657C11.7262 5.40991 12.2738 5.40991 12.647 5.72657L17.647 9.96899C17.8709 10.159 18 10.4378 18 10.7315V17C18 17.5523 17.5523 18 17 18H13.1667C12.8905 18 12.6667 17.7762 12.6667 17.5V13.3333H11.3333V17.5C11.3333 17.7762 11.1095 18 10.8333 18H7C6.44772 18 6 17.5523 6 17V10.7315C6 10.4378 6.12909 10.159 6.35302 9.96899L11.353 5.72657ZM12 6.48907L7 10.7315L7 17H10.3333V12.8333C10.3333 12.5572 10.5572 12.3333 10.8333 12.3333H13.1667C13.4428 12.3333 13.6667 12.5572 13.6667 12.8333V17H17V10.7315L12 6.48907Z" fill="#6E55CE"/>
</svg>
