<svg width="24" height="24" viewBox="0 0 24 24" fill="none" xmlns="http://www.w3.org/2000/svg">
<path fill-rule="evenodd" clip-rule="evenodd" d="M6.33293 9.33335C6.33293 7.30832 7.97452 5.66669 9.99954 5.66669C12.0246 5.66669 13.6662 7.30832 13.6662 9.33335C13.6662 10.593 13.031 11.7043 12.0634 12.3644C14.3064 13.1861 15.9221 15.3087 15.9968 17.8185C16.005 18.0945 15.7879 18.3249 15.5119 18.3331C15.2359 18.3413 15.0054 18.1242 14.9972 17.8482C14.9171 15.1572 12.7101 13 9.99948 13C7.28883 13 5.08183 15.1572 5.00174 17.8482C4.99352 18.1242 4.7631 18.3413 4.48708 18.3331C4.21106 18.3249 3.99396 18.0945 4.00218 17.8185C4.07688 15.3086 5.6926 13.1861 7.93564 12.3644C6.9681 11.7043 6.33293 10.593 6.33293 9.33335ZM9.99954 6.66669C8.52682 6.66669 7.33293 7.86059 7.33293 9.33335C7.33293 10.8061 8.52682 12 9.99954 12C11.4723 12 12.6662 10.8061 12.6662 9.33335C12.6662 7.86059 11.4723 6.66669 9.99954 6.66669Z" fill="white"/>
<path d="M15.5262 9.33335C15.4277 9.33335 15.3312 9.34036 15.237 9.35383C14.9637 9.39293 14.7104 9.20302 14.6713 8.92966C14.6322 8.6563 14.8221 8.403 15.0954 8.36391C15.2364 8.34375 15.3802 8.33335 15.5262 8.33335C17.1941 8.33335 18.5462 9.68546 18.5462 11.3534C18.5462 12.3372 18.0756 13.2106 17.3486 13.7616C18.9029 14.4584 19.9862 16.0188 19.9862 17.8334C19.9862 18.1095 19.7623 18.3334 19.4862 18.3334C19.21 18.3334 18.9862 18.1095 18.9862 17.8334C18.9862 16.2694 17.9482 14.9466 16.5224 14.5188L16.1662 14.4119V13.2946L16.4397 13.1556C17.0973 12.8214 17.5462 12.1394 17.5462 11.3534C17.5462 10.2377 16.6418 9.33335 15.5262 9.33335Z" fill="white"/>
</svg>
