<svg width="24" height="24" viewBox="0 0 24 24" fill="none" xmlns="http://www.w3.org/2000/svg">
<path fill-rule="evenodd" clip-rule="evenodd" d="M6 6.16667C6 5.52233 6.52233 5 7.16667 5H10.8333C11.1095 5 11.3333 5.22386 11.3333 5.5C11.3333 5.77614 11.1095 6 10.8333 6H7.16667C7.07462 6 7 6.07462 7 6.16667V17.8333C7 17.9254 7.07462 18 7.16667 18H10.8333C11.1095 18 11.3333 18.2239 11.3333 18.5C11.3333 18.7761 11.1095 19 10.8333 19H7.16667C6.52233 19 6 18.4777 6 17.8333V6.16667ZM12.6624 12.5L14.863 14.8228C15.0529 15.0233 15.0443 15.3397 14.8439 15.5296C14.6434 15.7196 14.3269 15.711 14.137 15.5105L11.137 12.3439C10.9543 12.151 10.9543 11.849 11.137 11.6561L14.137 8.48946C14.3269 8.289 14.6434 8.28044 14.8439 8.47036C15.0443 8.66027 15.0529 8.97674 14.863 9.17721L12.6624 11.5H18.1667C18.4428 11.5 18.6667 11.7239 18.6667 12C18.6667 12.2761 18.4428 12.5 18.1667 12.5H12.6624Z" fill="white"/>
</svg>
