<svg width="24" height="24" viewBox="0 0 24 24" fill="none" xmlns="http://www.w3.org/2000/svg">
<path fill-rule="evenodd" clip-rule="evenodd" d="M6 6.16667C6 5.52233 6.52233 5 7.16667 5H10.8333C11.1095 5 11.3333 5.22386 11.3333 5.5C11.3333 5.77614 11.1095 6 10.8333 6H7.16667C7.07462 6 7 6.07462 7 6.16667V17.8333C7 17.9254 7.07462 18 7.16667 18H10.8333C11.1095 18 11.3333 18.2239 11.3333 18.5C11.3333 18.7761 11.1095 19 10.8333 19H7.16667C6.52233 19 6 18.4777 6 17.8333V6.16667ZM16.6709 12.5L14.4704 14.8228C14.2804 15.0233 14.289 15.3397 14.4895 15.5296C14.6899 15.7196 15.0064 15.711 15.1963 15.5105L18.1963 12.3439C18.379 12.151 18.379 11.849 18.1963 11.6561L15.1963 8.48946C15.0064 8.289 14.6899 8.28044 14.4895 8.47036C14.289 8.66027 14.2804 8.97674 14.4704 9.17721L16.6709 11.5H11.1667C10.8905 11.5 10.6667 11.7239 10.6667 12C10.6667 12.2761 10.8905 12.5 11.1667 12.5H16.6709Z" fill="#6E55CE"/>
</svg>
