<svg width="24" height="24" viewBox="0 0 24 24" fill="none" xmlns="http://www.w3.org/2000/svg">
<path fill-rule="evenodd" clip-rule="evenodd" d="M6.16667 6.66669C6.07462 6.66669 6 6.74131 6 6.83335V15.1667C6 15.2587 6.07462 15.3334 6.16667 15.3334H7.83333C8.10948 15.3334 8.33333 15.5572 8.33333 15.8334V17.9596L10.8131 15.4798C10.9069 15.386 11.0341 15.3334 11.1667 15.3334H17.8333C17.9254 15.3334 18 15.2587 18 15.1667V6.83335C18 6.74131 17.9254 6.66669 17.8333 6.66669H6.16667ZM5 6.83335C5 6.18902 5.52233 5.66669 6.16667 5.66669H17.8333C18.4777 5.66669 19 6.18902 19 6.83335V15.1667C19 15.811 18.4777 16.3334 17.8333 16.3334H11.3738L8.99162 18.7155C8.80945 18.8977 8.56237 19 8.30474 19C7.76825 19 7.33333 18.5651 7.33333 18.0286V16.3334H6.16667C5.52233 16.3334 5 15.811 5 15.1667V6.83335Z" fill="#6E55CE"/>
</svg>
