<svg width="24" height="24" viewBox="0 0 24 24" fill="none" xmlns="http://www.w3.org/2000/svg">
<path d="M14.1667 13.3333C13.8905 13.3333 13.6667 13.5572 13.6667 13.8333C13.6667 14.1095 13.8905 14.3333 14.1667 14.3333H16.5C16.7761 14.3333 17 14.1095 17 13.8333C17 13.5572 16.7761 13.3333 16.5 13.3333H14.1667Z" fill="white"/>
<path fill-rule="evenodd" clip-rule="evenodd" d="M5.16667 6C4.52233 6 4 6.52233 4 7.16667V16.8333C4 17.4777 4.52233 18 5.16667 18H18.8333C19.4777 18 20 17.4777 20 16.8333V7.16667C20 6.52233 19.4777 6 18.8333 6H5.16667ZM5 7.16667C5 7.07462 5.07462 7 5.16667 7H18.8333C18.9254 7 19 7.07462 19 7.16667V9.66667H5V7.16667ZM5 10.6667V16.8333C5 16.9254 5.07462 17 5.16667 17H18.8333C18.9254 17 19 16.9254 19 16.8333V10.6667H5Z" fill="white"/>
</svg>
