<svg width="24" height="24" viewBox="0 0 24 24" fill="none" xmlns="http://www.w3.org/2000/svg">
<path fill-rule="evenodd" clip-rule="evenodd" d="M9.25724 5.03557C9.8529 4.4399 10.8642 4.65255 11.1695 5.43767L11.592 6.52402C11.809 7.08206 12.1556 7.58053 12.6031 7.97833C13.0268 8.35499 13.5299 8.63145 14.0751 8.7872L16.7145 9.54133C17.5698 9.78571 17.848 10.859 17.219 11.4881L14.707 14L18.4368 17.7298C18.632 17.9251 18.632 18.2416 18.4368 18.4369C18.2415 18.6322 17.9249 18.6322 17.7297 18.4369L13.9999 14.7071L11.4879 17.2191C10.8589 17.8481 9.78559 17.57 9.5412 16.7146L8.78708 14.0752C8.63133 13.5301 8.35487 13.027 7.9782 12.6032C7.58041 12.1557 7.08194 11.8091 6.5239 11.5921L5.43755 11.1697C4.65243 10.8643 4.43978 9.85302 5.03544 9.25736L9.25724 5.03557ZM13.6497 13.6431C13.6486 13.6442 13.6475 13.6453 13.6463 13.6464C13.6452 13.6476 13.6441 13.6487 13.643 13.6498L10.7808 16.512C10.691 16.6018 10.5376 16.5621 10.5027 16.4399L9.74861 13.8005C9.55162 13.111 9.20198 12.4748 8.72561 11.9388C8.22252 11.3729 7.59211 10.9346 6.88634 10.6601L5.79999 10.2377C5.68784 10.194 5.65746 10.0496 5.74255 9.96447L9.96434 5.74267C10.0494 5.65758 10.1939 5.68796 10.2375 5.80012L10.66 6.88647C10.9345 7.59223 11.3728 8.22264 11.9387 8.72573C12.4746 9.20211 13.1109 9.55174 13.8004 9.74873L16.4398 10.5028C16.562 10.5378 16.6017 10.6911 16.5118 10.781L13.6497 13.6431Z" fill="#6E55CE"/>
</svg>
