<svg width="24" height="24" viewBox="0 0 24 24" fill="none" xmlns="http://www.w3.org/2000/svg">
<path d="M6.25396 9.33335C7.26088 7.1673 9.45592 5.66669 12.0003 5.66669C14.9646 5.66669 17.4544 7.70366 18.144 10.4549C18.2111 10.7228 18.4827 10.8855 18.7505 10.8184C19.0184 10.7512 19.1811 10.4797 19.114 10.2118C18.3156 7.02628 15.4341 4.66669 12.0003 4.66669C9.2987 4.66669 6.93918 6.12747 5.66699 8.30108V7.16669C5.66699 6.89054 5.44313 6.66669 5.16699 6.66669C4.89085 6.66669 4.66699 6.89054 4.66699 7.16669V9.66669C4.66699 10.0349 4.96547 10.3334 5.33366 10.3334H7.83366C8.1098 10.3334 8.33366 10.1095 8.33366 9.83335C8.33366 9.55721 8.1098 9.33335 7.83366 9.33335H6.25396Z" fill="white"/>
<path d="M5.8567 13.5451C5.78956 13.2773 5.518 13.1146 5.25014 13.1817C4.98229 13.2488 4.81957 13.5204 4.8867 13.7882C5.68511 16.9738 8.56654 19.3334 12.0003 19.3334C14.702 19.3334 17.0615 17.8726 18.3337 15.699V16.8334C18.3337 17.1095 18.5575 17.3334 18.8337 17.3334C19.1098 17.3334 19.3337 17.1095 19.3337 16.8334V14.3334C19.3337 13.9652 19.0352 13.6667 18.667 13.6667H16.167C15.8908 13.6667 15.667 13.8905 15.667 14.1667C15.667 14.4428 15.8908 14.6667 16.167 14.6667H17.7467C16.7398 16.8327 14.5448 18.3334 12.0003 18.3334C9.03604 18.3334 6.54626 16.2964 5.8567 13.5451Z" fill="white"/>
</svg>
