<svg width="304" height="92" viewBox="0 0 304 92" fill="none" xmlns="http://www.w3.org/2000/svg">
<g clip-path="url(#clip0_213:472)">
<path opacity="0.15" fill-rule="evenodd" clip-rule="evenodd" d="M41.6007 -0.0090332H49.1007C50.2487 0.158967 51.4097 0.290967 52.5517 0.504967C69.2057 3.65597 80.9667 12.958 87.4637 28.679C90.249 35.5195 91.2587 42.9534 90.3987 50.289C89.5561 58.2389 86.613 65.8213 81.8717 72.258C81.7622 72.4236 81.6921 72.6121 81.6668 72.809C81.6415 73.0059 81.6616 73.206 81.7257 73.394C85.3717 79.278 89.0607 85.138 92.7387 91.006L92.2857 91.232C92.0351 91.0799 91.7752 90.9437 91.5077 90.824C84.7967 88.389 78.0827 85.967 71.3777 83.511C71.0755 83.376 70.7432 83.3227 70.414 83.3564C70.0848 83.3901 69.7702 83.5096 69.5017 83.703C62.1011 88.3393 53.523 90.7487 44.7907 90.6437C36.0584 90.5387 27.5407 87.9238 20.2537 83.111C19.3697 82.532 18.5427 81.862 17.5407 81.126C21.0017 79.659 24.1947 78.275 27.4187 76.975C27.909 76.8576 28.4256 76.929 28.8657 77.175C36.206 80.9855 44.6408 82.132 52.7319 80.4189C60.823 78.7059 68.0695 74.2394 73.2357 67.781C76.4292 63.9579 78.7558 59.4877 80.055 54.6787C81.3543 49.8697 81.5954 44.8361 80.7617 39.925C79.5302 31.3202 75.1424 23.481 68.4517 17.932C64.863 14.865 60.6999 12.5427 56.2048 11.1005C51.7098 9.65833 46.9727 9.125 42.2695 9.53162C37.5664 9.93825 32.9911 11.2767 28.8103 13.469C24.6295 15.6612 20.9267 18.6635 17.9177 22.301C12.5798 28.6437 9.6057 36.6407 9.50177 44.93C9.39784 53.2193 12.1705 61.2884 17.3477 67.763C17.4757 67.9105 17.5707 68.0838 17.6263 68.2711C17.6818 68.4584 17.6966 68.6555 17.6697 68.849C16.3617 71.733 14.9877 74.585 13.6367 77.442C13.5303 77.418 13.4277 77.3797 13.3317 77.328C13.1317 77.154 12.9377 76.975 12.7527 76.787C6.65239 70.4903 2.53571 62.5407 0.913672 53.925C0.493672 51.668 0.302672 49.368 0.0136719 47.084V43.45C0.0901334 43.1257 0.146573 42.7971 0.182672 42.466C0.44279 36.6975 1.8842 31.0438 4.41767 25.855C10.9927 12.488 21.5977 4.13597 36.1497 0.896967C37.9447 0.497967 39.7807 0.288967 41.6007 -0.0090332Z" fill="white"/>
<path fill-rule="evenodd" clip-rule="evenodd" d="M9.9248 83.6368C13.6498 78.4779 17.3768 73.3158 21.0068 68.2859C19.3928 65.9599 17.6768 63.8318 16.3248 61.4858C12.8915 55.6427 11.4285 48.8503 12.1518 42.1118C13.3008 30.8248 18.7748 22.1628 28.4148 16.4248C32.6412 13.9688 37.3575 12.4754 42.2272 12.0512C47.097 11.6269 52.0005 12.2823 56.5879 13.9706C61.1753 15.6589 65.3338 18.3385 68.7668 21.8183C72.1999 25.2981 74.8229 29.4925 76.4489 34.1024C78.0749 38.7123 78.6638 43.6241 78.1736 48.4877C77.6835 53.3513 76.1264 58.0469 73.6133 62.2397C71.1002 66.4324 67.693 70.0191 63.6347 72.744C59.5764 75.4689 54.9669 77.2648 50.1348 78.0038C43.1784 79.1086 36.0516 77.9149 29.8348 74.6038C29.6042 74.46 29.3382 74.3831 29.0664 74.3817C28.7947 74.3802 28.5279 74.4544 28.2958 74.5958C22.5851 77.5138 16.8658 80.4138 11.1378 83.2958C10.7808 83.4738 10.4138 83.6268 10.0508 83.7908C10.0128 83.7418 9.9748 83.6908 9.9248 83.6368ZM66.7658 59.8118C70.5747 54.2496 72.0936 47.4334 71.0067 40.7802C69.9199 34.127 66.3108 28.1486 60.9298 24.0876C55.5488 20.0267 48.8098 18.1956 42.1136 18.975C35.4174 19.7545 29.2792 23.0845 24.9748 28.2729C16.2398 38.5798 18.0158 52.8088 23.5548 59.6728C23.6239 59.4491 23.6777 59.2209 23.7158 58.9898C23.8848 56.5748 24.0538 54.1638 24.2008 51.7458C24.4248 48.0938 26.4898 45.7558 29.8678 45.5848C33.3858 45.4098 36.6678 46.7248 36.7318 51.1228C36.7879 51.9454 36.8908 52.764 37.0398 53.5748C37.3491 52.4237 37.523 51.2403 37.5578 50.0488C37.7208 45.8688 40.4478 43.0929 44.4638 43.0599C49.3848 43.0198 51.7878 45.1598 52.0958 49.7418C52.2618 52.2628 52.5778 54.7718 52.8258 57.2848C53.0958 55.4708 53.2508 53.6688 53.4408 51.8698C53.4641 51.0407 53.5907 50.2176 53.8178 49.4198C55.3178 45.3488 59.5258 44.8618 62.9058 46.2278C63.676 46.5132 64.3495 47.0112 64.8479 47.664C65.3464 48.3168 65.6494 49.0977 65.7218 49.9158C65.9698 51.9788 66.1568 54.0499 66.3728 56.1158C66.5018 57.2918 66.6248 58.4788 66.7658 59.8118ZM37.9148 35.5389C37.919 34.1856 38.3249 32.864 39.0811 31.7417C39.8372 30.6193 40.9095 29.7468 42.1621 29.2345C43.4147 28.7223 44.7912 28.5935 46.1171 28.8645C47.443 29.1355 48.6586 29.794 49.6098 30.7565C50.561 31.7191 51.205 32.9425 51.4602 34.2715C51.7154 35.6005 51.5702 36.9753 51.0431 38.2218C50.5161 39.4682 49.6308 40.5301 48.4996 41.2728C47.3683 42.0156 46.042 42.4057 44.6888 42.3939C43.791 42.3986 42.9014 42.224 42.072 41.8802C41.2427 41.5364 40.4904 41.0303 39.8594 40.3917C39.2283 39.7531 38.7313 38.9949 38.3973 38.1615C38.0634 37.3282 37.8993 36.4365 37.9148 35.5389ZM53.7228 39.1248C53.725 37.9602 54.0724 36.8224 54.7213 35.8552C55.3701 34.888 56.2911 34.1349 57.3679 33.6911C58.4447 33.2473 59.6289 33.1328 60.7707 33.362C61.9126 33.5912 62.9609 34.1539 63.783 34.9788C64.6051 35.8037 65.1642 36.8539 65.3895 37.9965C65.6149 39.1392 65.4963 40.323 65.0489 41.3982C64.6015 42.4735 63.8452 43.392 62.8759 44.0375C61.9065 44.683 60.7675 45.0266 59.6028 45.0248C58.8271 45.0314 58.0579 44.8832 57.3402 44.5887C56.6226 44.2943 55.9708 43.8596 55.4233 43.3102C54.8757 42.7607 54.4432 42.1076 54.1512 41.3889C53.8593 40.6702 53.7136 39.9005 53.7228 39.1248ZM24.5978 39.0799C24.5871 38.3028 24.7328 37.5316 25.0263 36.8121C25.3198 36.0925 25.7551 35.4394 26.3062 34.8916C26.8574 34.3438 27.5131 33.9125 28.2345 33.6234C28.9558 33.3343 29.7279 33.1933 30.5048 33.2088C31.281 33.2154 32.0484 33.3748 32.763 33.6779C33.4777 33.9811 34.1256 34.422 34.6699 34.9755C35.2141 35.529 35.644 36.1843 35.935 36.904C36.226 37.6237 36.3724 38.3936 36.3658 39.1698C36.3592 39.9461 36.1998 40.7134 35.8967 41.4281C35.5936 42.1427 35.1527 42.7907 34.5992 43.3349C34.0456 43.8792 33.3903 44.309 32.6707 44.6C31.951 44.891 31.181 45.0374 30.4048 45.0308C29.6284 45.0375 28.8587 44.8871 28.1419 44.5887C27.4251 44.2903 26.776 43.8501 26.2336 43.2945C25.6912 42.739 25.2667 42.0795 24.9856 41.3557C24.7045 40.632 24.5726 39.8589 24.5978 39.0828V39.0799Z" fill="white"/>
<path fill-rule="evenodd" clip-rule="evenodd" d="M124.827 57.905V56.005C123.926 56.7676 122.907 57.3773 121.808 57.81C120.597 58.2788 119.307 58.5107 118.008 58.493C116.081 58.6 114.185 57.9725 112.701 56.737C112.054 56.1459 111.545 55.4202 111.208 54.611C110.872 53.8018 110.716 52.9286 110.753 52.053C110.722 50.9891 110.974 49.936 111.484 49.0016C111.993 48.0671 112.742 47.2849 113.653 46.735C114.684 46.1068 115.811 45.6534 116.989 45.393C118.411 45.0703 119.866 44.9146 121.323 44.929H124.874V44.05C124.874 42.4887 124.428 41.4553 123.535 40.95C122.443 40.4006 121.227 40.1403 120.005 40.194C117.919 40.1176 115.846 40.5529 113.967 41.462L112.799 39.025C113.803 38.436 114.901 38.0234 116.044 37.805C117.274 37.5471 118.526 37.4161 119.782 37.414C122.552 37.414 124.62 37.9263 125.988 38.951C126.67 39.4702 127.213 40.1488 127.571 40.9271C127.929 41.7054 128.091 42.5597 128.041 43.415V57.905H124.827ZM124.827 47.611H122.148C120.077 47.5024 118.007 47.8524 116.086 48.636C115.437 48.9292 114.891 49.4125 114.521 50.0222C114.152 50.6319 113.976 51.3392 114.016 52.051C113.985 52.5817 114.098 53.111 114.342 53.5832C114.586 54.0554 114.953 54.4529 115.404 54.734C116.361 55.3282 117.469 55.6331 118.594 55.612C119.756 55.6265 120.907 55.4026 121.978 54.954C122.996 54.5177 123.954 53.9521 124.827 53.271V47.612V47.611ZM151.121 52.27C150.675 53.4879 150.006 54.6126 149.149 55.587C148.333 56.506 147.328 57.2383 146.203 57.734C145.053 58.2407 143.808 58.4984 142.551 58.49C141.14 58.5131 139.752 58.1231 138.558 57.368C137.473 56.7061 136.569 55.7839 135.929 54.685V66.638H132.763V38.001H135.929V41.27C136.584 40.1885 137.484 39.2774 138.558 38.611C139.818 37.7954 141.294 37.3773 142.794 37.411C144.087 37.3947 145.364 37.6875 146.52 38.265C147.63 38.8263 148.609 39.6159 149.392 40.582C150.201 41.5831 150.82 42.724 151.218 43.948C151.644 45.2384 151.858 46.5892 151.851 47.948C151.873 49.4214 151.626 50.8865 151.121 52.271V52.27ZM148.174 45.06C147.919 44.1946 147.516 43.3801 146.981 42.653C146.461 41.9562 145.786 41.3902 145.009 41C144.171 40.5848 143.245 40.3764 142.309 40.392C141.389 40.3793 140.479 40.5878 139.656 41C138.861 41.4046 138.157 41.9671 137.586 42.653C136.988 43.374 136.527 44.1977 136.223 45.084C135.895 46.0298 135.73 47.0248 135.736 48.026C135.736 48.9692 135.892 49.9059 136.198 50.798C136.489 51.6728 136.934 52.4881 137.513 53.205C138.075 53.8967 138.77 54.4676 139.558 54.883C140.377 55.3101 141.289 55.5273 142.212 55.515C143.12 55.5293 144.019 55.3382 144.842 54.956C145.623 54.5823 146.312 54.0428 146.862 53.375C147.447 52.6652 147.885 51.8473 148.153 50.968C148.454 49.9834 148.602 48.9585 148.591 47.929C148.595 46.9573 148.454 45.9905 148.174 45.06ZM173.958 52.271C173.511 53.4887 172.843 54.6133 171.986 55.588C171.17 56.507 170.165 57.2393 169.04 57.735C167.89 58.2417 166.645 58.4994 165.387 58.491C163.976 58.5139 162.588 58.1239 161.395 57.369C160.309 56.7071 159.406 55.785 158.765 54.686V66.638H155.6V38.001H158.765V41.27C159.42 40.1885 160.321 39.2774 161.395 38.611C162.655 37.7952 164.131 37.3771 165.631 37.411C166.923 37.3947 168.201 37.6875 169.356 38.265C170.466 38.8265 171.445 39.6161 172.229 40.582C173.038 41.5831 173.657 42.724 174.055 43.948C174.481 45.2384 174.695 46.5892 174.688 47.948C174.711 49.4214 174.464 50.8864 173.959 52.271H173.958ZM171.012 45.06C170.757 44.1947 170.353 43.3803 169.819 42.653C169.299 41.9562 168.624 41.3902 167.847 41C167.009 40.5848 166.083 40.3764 165.147 40.392C164.227 40.3793 163.317 40.5878 162.493 41C161.699 41.4047 160.995 41.9671 160.424 42.653C159.826 43.3737 159.364 44.1975 159.06 45.084C158.732 46.0296 158.568 47.0242 158.574 48.025C158.575 48.9682 158.731 49.9049 159.037 50.797C159.327 51.6719 159.773 52.4874 160.352 53.204C160.914 53.896 161.609 54.4668 162.397 54.882C163.216 55.3091 164.128 55.5263 165.051 55.514C165.959 55.5284 166.857 55.3373 167.68 54.955C168.461 54.5814 169.151 54.0418 169.701 53.374C170.285 52.6641 170.724 51.8462 170.991 50.967C171.293 49.9826 171.441 48.9575 171.43 47.928C171.434 46.9567 171.293 45.9902 171.013 45.06H171.012ZM178.437 57.906V22.292H181.603V57.905H178.437V57.906ZM205.244 52.052C204.736 53.3111 203.992 54.4619 203.053 55.443C202.122 56.4066 201.003 57.1701 199.766 57.687C198.471 58.2277 197.08 58.4999 195.676 58.487C194.275 58.4984 192.885 58.2333 191.585 57.707C190.346 57.2132 189.221 56.4687 188.283 55.52C187.344 54.5713 186.612 53.439 186.131 52.194C185.599 50.8261 185.335 49.3687 185.352 47.901C185.34 46.4987 185.597 45.107 186.107 43.801C186.592 42.5613 187.311 41.4266 188.225 40.459C189.145 39.4925 190.256 38.7282 191.487 38.215C192.799 37.6694 194.207 37.3956 195.627 37.41C197.055 37.3973 198.471 37.6711 199.79 38.215C201.028 38.7231 202.153 39.4708 203.101 40.415C204.037 41.3568 204.773 42.4765 205.268 43.708C205.795 45.0103 206.06 46.4034 206.048 47.808C206.062 49.2614 205.79 50.7032 205.245 52.051L205.244 52.052ZM202.244 44.842C201.911 43.9578 201.407 43.1483 200.759 42.46C200.123 41.7931 199.351 41.2706 198.495 40.928C197.582 40.5643 196.606 40.3826 195.622 40.393C194.644 40.3811 193.674 40.5714 192.773 40.952C191.93 41.3131 191.174 41.8521 190.557 42.532C189.932 43.2281 189.445 44.0368 189.121 44.915C188.773 45.8647 188.6 46.8696 188.61 47.881C188.596 48.9325 188.769 49.9781 189.121 50.969C189.44 51.8565 189.928 52.6739 190.557 53.376C191.173 54.0567 191.929 54.596 192.773 54.957C193.674 55.3379 194.644 55.5282 195.622 55.516C196.652 55.5315 197.674 55.333 198.622 54.933C199.483 54.5677 200.255 54.0221 200.886 53.333C201.514 52.6334 201.994 51.8148 202.298 50.926C202.632 49.9475 202.796 48.9196 202.785 47.886C202.798 46.8466 202.616 45.8139 202.25 44.841L202.244 44.842ZM216.122 62.395C215.698 63.5833 215.035 64.6723 214.174 65.595C213.71 66.0562 213.153 66.4142 212.54 66.6454C211.928 66.8767 211.273 66.976 210.619 66.937C210.073 66.9422 209.528 66.9011 208.988 66.814C208.496 66.7245 208.015 66.5831 207.552 66.392V63.369C208.237 63.7514 209.008 63.9528 209.792 63.954C210.303 63.9688 210.81 63.869 211.277 63.662C211.673 63.4741 212.023 63.2009 212.3 62.862C212.584 62.5048 212.819 62.1121 213 61.694C213.195 61.2553 213.39 60.7927 213.585 60.306L214.51 57.969L206.974 38.001H210.382L216.374 53.759L222.12 38.002H225.432L216.122 62.395ZM251.38 57.907V32.953L241.457 47.353H240.08L230.164 33.034V57.905H227.374V28.287H230.128L240.815 43.705L251.345 28.287H254.18V57.905H251.386L251.38 57.907ZM259.724 48.052C259.746 49.0597 259.927 50.0576 260.259 51.009C260.562 51.8769 261.034 52.6761 261.647 53.36C262.26 54.0314 263.007 54.5678 263.838 54.935C264.768 55.337 265.773 55.5354 266.785 55.517C268.097 55.5528 269.402 55.303 270.607 54.785C271.689 54.2789 272.684 53.6038 273.553 52.785L275.598 54.785C274.549 55.8145 273.351 56.6798 272.043 57.352C270.378 58.1649 268.539 58.5564 266.687 58.492C265.225 58.5174 263.773 58.2349 262.426 57.663C261.219 57.1406 260.136 56.3675 259.25 55.395C258.362 54.4022 257.682 53.2408 257.25 51.98C256.776 50.6075 256.539 49.1641 256.55 47.712C256.544 46.3829 256.771 45.0629 257.22 43.812C257.654 42.6002 258.316 41.4824 259.169 40.519C260.037 39.5472 261.103 38.7737 262.296 38.251C263.601 37.6831 265.012 37.4001 266.434 37.421C267.845 37.3897 269.245 37.6819 270.525 38.275C271.67 38.8256 272.683 39.6158 273.495 40.592C274.32 41.5922 274.94 42.7442 275.321 43.983C275.733 45.3029 275.955 46.6746 275.979 48.057H259.73L259.724 48.052ZM271.8 43.533C271.477 42.9222 271.058 42.3672 270.558 41.889C270.029 41.3897 269.409 40.9963 268.732 40.73C267.603 40.314 266.387 40.1934 265.198 40.3794C264.009 40.5654 262.887 41.052 261.939 41.793C260.872 42.755 260.16 44.0491 259.919 45.466H272.482C272.354 44.7914 272.126 44.1396 271.806 43.532L271.8 43.533Z" fill="white"/>
</g>
<defs>
<clipPath id="clip0_213:472">
<rect width="303.5" height="91.219" fill="white"/>
</clipPath>
</defs>
</svg>
